<svg xmlns="http://www.w3.org/2000/svg" width="12" height="39" fill="none"><path stroke="url(#a)" d="M7.707 21.207h4"/><path stroke="url(#b)" d="M.353 3.182 3.182.353"/><path stroke="url(#c)" d="m3.622 6.674 3.121-2.501"/><path stroke="url(#d)" d="m7.107 16.217 3.921-.798"/><path stroke="url(#e)" d="m6.107 11.522 3.698-1.525"/><path stroke="url(#f)" d="M0-.5h4" transform="scale(1 -1) rotate(-38.715 -48.342 -23.274)"/><path stroke="url(#g)" d="M0-.5h4.001" transform="scale(1 -1) rotate(-11.5 -124.05 -48.641)"/><path stroke="url(#h)" d="M0-.5h4" transform="scale(1 -1) rotate(-22.42 -73.62 -31.103)"/><defs><linearGradient id="a" x1="9.707" x2="9.707" y1="20.207" y2="22.535" gradientUnits="userSpaceOnUse"><stop stop-color="#0CAB94"/><stop offset="1" stop-color="#0B7A6A"/></linearGradient><linearGradient id="b" x1="1.061" x2="2.707" y1="1.06" y2="2.707" gradientUnits="userSpaceOnUse"><stop stop-color="#0B9984"/><stop offset="1" stop-color="#085A4D"/></linearGradient><linearGradient id="c" x1="4.557" x2="6.013" y1="4.643" y2="6.46" gradientUnits="userSpaceOnUse"><stop stop-color="#0B9984"/><stop offset="1" stop-color="#085A4D"/></linearGradient><linearGradient id="d" x1="8.868" x2="9.332" y1="14.838" y2="17.12" gradientUnits="userSpaceOnUse"><stop stop-color="#0CAB94"/><stop offset="1" stop-color="#0B7A6A"/></linearGradient><linearGradient id="e" x1="7.575" x2="8.463" y1="9.835" y2="11.987" gradientUnits="userSpaceOnUse"><stop stop-color="#0CA28C"/><stop offset="1" stop-color="#0A7565"/></linearGradient><linearGradient id="f" x1="2" x2="2" y1="-1.5" y2=".828" gradientUnits="userSpaceOnUse"><stop stop-color="#0EBEA4"/><stop offset="1" stop-color="#0C8D7A"/></linearGradient><linearGradient id="g" x1="2" x2="2" y1="-1.5" y2=".828" gradientUnits="userSpaceOnUse"><stop stop-color="#0EBEA4"/><stop offset="1" stop-color="#0C8D7A"/></linearGradient><linearGradient id="h" x1="2" x2="2" y1="-1.5" y2=".828" gradientUnits="userSpaceOnUse"><stop stop-color="#0EBEA4"/><stop offset="1" stop-color="#0C8D7A"/></linearGradient></defs></svg>